Input #0, mov,mp4,m4a,3gp,3g2,mj2, from 'https://commondatastorage.googleapis.com/gtv-videos-bucket/sample/ForBiggerEscapes.mp4':
  Metadata:
    major_brand     : mp42
    minor_version   : 0
    compatible_brands: isommp42
    creation_time   : 2013-11-12T06:38:58.000000Z
  Duration: 00:00:15.05, start: 0.000000, bitrate: 1222 kb/s
  Stream #0:0(und): Video: h264 (High) (avc1 / 0x31637661), yuv420p, 1280x720, 1027 kb/s, 24 fps, 24 tbr, 48 tbn, 48 tbc (default)
    Metadata:
      handler_name    : VideoHandler
      vendor_id       : [0][0][0][0]
  Stream #0:1(und): Audio: aac (LC) (mp4a / 0x6134706D), 44100 Hz, stereo, fltp, 192 kb/s (default)
    Metadata:
      creation_time   : 2013-11-12T06:38:58.000000Z
      handler_name    : IsoMedia File Produced by Google, 5-11-2011
      vendor_id       : [0][0][0][0]
Stream mapping:
  Stream #0:0 -> #0:0 (h264 (native) -> h264 (h264_nvenc))
Press [q] to stop, [?] for help
Output #0, mp4, to './test_results/temp_tests_gpu/test_test_50_4/output.mp4':
  Metadata:
    major_brand     : mp42
    minor_version   : 0
    compatible_brands: isommp42
    encoder         : Lavf58.76.100
  Stream #0:0(und): Video: h264 (Main) (avc1 / 0x31637661), yuv420p(progressive), 1280x720, q=2-31, 24 fps, 12288 tbn (default)
    Metadata:
      handler_name    : VideoHandler
      vendor_id       : [0][0][0][0]
      encoder         : Lavc58.134.100 h264_nvenc
    Side data:
      cpb: bitrate max/min/avg: 3000000/0/0 buffer size: 4000000 vbv_delay: N/A
frame=    1 fps=0.0 q=0.0 size=       0kB time=00:00:00.00 bitrate=N/A speed=   0x    frame=    2 fps=0.0 q=0.0 size=       0kB time=00:00:00.00 bitrate=N/A speed=   0x    frame=  222 fps=189 q=22.0 size=    1280kB time=00:00:09.12 bitrate=1149.2kbits/s speed=7.78x    frame=  361 fps=216 q=23.0 size=    1280kB time=00:00:14.91 bitrate= 703.0kbits/s speed=8.92x    frame=  497 fps=229 q=28.0 size=    2304kB time=00:00:20.58 bitrate= 917.0kbits/s speed=9.47x    frame=  652 fps=244 q=23.0 size=    2816kB time=00:00:27.04 bitrate= 853.1kbits/s speed=10.1x    frame=  771 fps=243 q=23.0 size=    3072kB time=00:00:32.00 bitrate= 786.4kbits/s speed=10.1x    frame=  965 fps=263 q=23.0 size=    4352kB time=00:00:40.08 bitrate= 889.4kbits/s speed=10.9x    frame= 1242 fps=297 q=24.0 size=    5376kB time=00:00:51.62 bitrate= 853.1kbits/s speed=12.4x    [mp4 @ 0x5a0443060200] Starting second pass: moving the moov atom to the beginning of the file
frame= 1440 fps=329 q=23.0 Lsize=    5997kB time=00:00:59.95 bitrate= 819.4kbits/s speed=13.7x    
video:5990kB audio:0kB subtitle:0kB other streams:0kB global headers:0kB muxing overhead: 0.110481%
